<svg xmlns="http://www.w3.org/2000/svg" viewBox="0 0 389.65 243.77"><defs><style>.cls-1{fill:#f7941d;}.cls-2{fill:#1b75bc;}.cls-3{fill:#00aeef;}.cls-4{fill:#fff;}.cls-5{fill:#231f20;}</style></defs><title>logo</title><g id="Layer_2" data-name="Layer 2"><g id="Layer_1-2" data-name="Layer 1"><g id="_Group_" data-name="&lt;Group&gt;"><g id="_Group_2" data-name="&lt;Group&gt;"><polygon id="_Path_" data-name="&lt;Path&gt;" class="cls-1" points="161.9 78.84 194.83 111.77 172.58 134.01 150.33 156.26 72.9 78.84 150.33 1.41 194.83 45.91 161.9 78.84"/><path id="_Compound_Path_" data-name="&lt;Compound Path&gt;" class="cls-2" d="M150.33,157.68,71.48,78.84,150.33,0l45.91,45.91L163.31,78.84l32.93,32.93Zm-76-78.84,76,76,43.08-43.08L160.48,78.84l32.93-32.93L150.33,2.83Z"/></g><g id="_Group_3" data-name="&lt;Group&gt;"><polygon id="_Path_2" data-name="&lt;Path&gt;" class="cls-1" points="316.76 78.84 239.33 156.26 217.08 134.01 194.83 111.77 227.76 78.84 194.83 45.91 239.33 1.41 316.76 78.84"/><path id="_Compound_Path_2" data-name="&lt;Compound Path&gt;" class="cls-2" d="M239.33,157.68l-45.92-45.91,32.93-32.93L193.41,45.91,239.33,0l78.84,78.84Zm-43.09-45.91,43.09,43.08,76-76-76-76L196.24,45.91l32.93,32.93Z"/></g><g id="_Group_4" data-name="&lt;Group&gt;"><path class="cls-1" d="M194.83,1.41,117.4,78.84,172.58,134l22.25,22.25L217.08,134l55.18-55.17Zm0,110.36L161.9,78.84l32.93-32.93,32.93,32.93Z"/></g><g id="_Group_5" data-name="&lt;Group&gt;"><polygon id="_Path_3" data-name="&lt;Path&gt;" class="cls-3" points="161.9 78.85 194.83 111.78 172.58 134.02 117.4 78.85 172.58 23.67 194.83 45.92 161.9 78.85"/></g><g id="_Group_6" data-name="&lt;Group&gt;"><polygon id="_Path_4" data-name="&lt;Path&gt;" class="cls-3" points="272.26 78.85 217.08 134.02 194.83 111.78 227.76 78.85 194.83 45.92 217.08 23.67 272.26 78.85"/></g><g id="_Group_7" data-name="&lt;Group&gt;"><path id="_Compound_Path_3" data-name="&lt;Compound Path&gt;" class="cls-2" d="M217.08,23.67,194.83,45.92l32.93,32.93-32.93,32.93L217.08,134l55.18-55.17ZM194.83,45.92,172.58,23.67,117.4,78.85,172.58,134l22.25-22.24L161.9,78.85Z"/><path id="_Compound_Path_4" data-name="&lt;Compound Path&gt;" class="cls-4" d="M217.08,135.43l-22.25-22.24-22.25,22.24L116,78.85l56.6-56.59,22.25,22.25,22.25-22.25,56.59,56.59Zm-20.84-23.65,20.84,20.82,53.76-53.75L217.08,25.08,196.24,45.92l32.93,32.93ZM118.81,78.85l53.77,53.75,20.83-20.82L160.48,78.85l32.93-32.93L172.58,25.08Zm44.5,0,31.52,31.52,31.51-31.52L194.83,47.33Z"/></g></g><g id="_Group_8" data-name="&lt;Group&gt;"><path id="_Compound_Path_5" data-name="&lt;Compound Path&gt;" class="cls-5" d="M13.51,187.8h6.41v12.38a10.5,10.5,0,0,1-.57,3.48,7.72,7.72,0,0,1-1.8,2.86A7.16,7.16,0,0,1,15,208.24a13,13,0,0,1-4.49.7,26.61,26.61,0,0,1-3.31-.22,8.59,8.59,0,0,1-3-.84A7.68,7.68,0,0,1,2,206.09a6.56,6.56,0,0,1-1.36-2.4,12.29,12.29,0,0,1-.6-3.51V187.8H6.41v12.68a3.61,3.61,0,0,0,.94,2.65,3.5,3.5,0,0,0,2.62,1,3.56,3.56,0,0,0,2.6-.94,3.61,3.61,0,0,0,.94-2.67Z"/><path id="_Compound_Path_6" data-name="&lt;Compound Path&gt;" class="cls-5" d="M41.09,187.8v20.78h-5.4v-2.22a7.15,7.15,0,0,1-2.07,1.91,6,6,0,0,1-2.78.65,5.38,5.38,0,0,1-4.7-2.34,9.73,9.73,0,0,1-1.62-5.68,8.28,8.28,0,0,1,1.79-5.73,5.9,5.9,0,0,1,4.56-2,6.4,6.4,0,0,1,2.45.46,5.51,5.51,0,0,1,2,1.36v-7.2ZM35.31,201a4,4,0,0,0-.75-2.64,2.39,2.39,0,0,0-1.9-.88,2.09,2.09,0,0,0-1.69.84,4.52,4.52,0,0,0-.68,2.81,4.22,4.22,0,0,0,.7,2.7,2.18,2.18,0,0,0,1.74.86,2.31,2.31,0,0,0,1.84-.87A4.31,4.31,0,0,0,35.31,201Z"/><path id="_Compound_Path_7" data-name="&lt;Compound Path&gt;" class="cls-5" d="M46.12,193.52h5.4V196a5.86,5.86,0,0,1,1.61-2.2,3.41,3.41,0,0,1,2-.61A6.09,6.09,0,0,1,58,194l-1.78,4.11a4.64,4.64,0,0,0-1.62-.43,2,2,0,0,0-1.76.94c-.59.88-.89,2.52-.89,4.93v5.05h-5.8Z"/><path id="_Compound_Path_8" data-name="&lt;Compound Path&gt;" class="cls-5" d="M77.23,208.58H71.85v-2.44a7.82,7.82,0,0,1-2.44,2.14,6.38,6.38,0,0,1-3,.64,4.92,4.92,0,0,1-3.74-1.42,6.2,6.2,0,0,1-1.35-4.39v-9.59h5.8v8.28a3.06,3.06,0,0,0,.52,2,1.87,1.87,0,0,0,1.48.59,2.09,2.09,0,0,0,1.69-.79,4.58,4.58,0,0,0,.66-2.85v-7.25h5.77Z"/><path id="_Compound_Path_9" data-name="&lt;Compound Path&gt;" class="cls-5" d="M81.53,193.52h14v3.38l-7.6,7.74H96v3.94H81v-3.74l7.22-7.37H81.53Zm9-1.84H86.43l-3.15-4.05h3.5l1.73,2.17,1.73-2.17h3.53Z"/><path id="_Compound_Path_10" data-name="&lt;Compound Path&gt;" class="cls-5" d="M116.5,202.49H104.93a3.8,3.8,0,0,0,.76,2.07,2.72,2.72,0,0,0,2.18,1,3.32,3.32,0,0,0,1.62-.42,3.91,3.91,0,0,0,1-1l5.69.52a8.13,8.13,0,0,1-3.15,3.26,11.53,11.53,0,0,1-5.29,1,10.91,10.91,0,0,1-4.71-.84,6.93,6.93,0,0,1-2.84-2.68,8.09,8.09,0,0,1-1.13-4.32,7.57,7.57,0,0,1,2.27-5.71,8.58,8.58,0,0,1,6.24-2.19,11.16,11.16,0,0,1,5.11,1,6.68,6.68,0,0,1,2.85,2.84,10.4,10.4,0,0,1,1,4.83Zm-5.87-2.77a3.86,3.86,0,0,0-.9-2.4,2.82,2.82,0,0,0-4.11.37,4,4,0,0,0-.67,2Z"/><path id="_Compound_Path_11" data-name="&lt;Compound Path&gt;" class="cls-5" d="M120.61,193.52H126V196a8,8,0,0,1,2.44-2.15,6.41,6.41,0,0,1,3-.65,5,5,0,0,1,3.75,1.43,6.21,6.21,0,0,1,1.35,4.4v9.57h-5.8V200.3a3,3,0,0,0-.52-2,1.89,1.89,0,0,0-1.48-.58,2.1,2.1,0,0,0-1.7.79,4.66,4.66,0,0,0-.65,2.85v7.23h-5.77Z"/><path id="_Compound_Path_12" data-name="&lt;Compound Path&gt;" class="cls-5" d="M141.65,193.52h5.79v14.61a13.32,13.32,0,0,1-.41,4,3.58,3.58,0,0,1-1.49,1.89,5.67,5.67,0,0,1-3.12.72,21.74,21.74,0,0,1-4.15-.49l.86-4.2a6.05,6.05,0,0,0,1,.14,1.33,1.33,0,0,0,1.12-.5,3.59,3.59,0,0,0,.38-2Zm0-5.72h5.79v4h-5.79Z"/><path id="_Compound_Path_13" data-name="&lt;Compound Path&gt;" class="cls-5" d="M169.27,202.49H157.7a3.72,3.72,0,0,0,.75,2.07,2.73,2.73,0,0,0,2.18,1,3.32,3.32,0,0,0,1.62-.42,3.91,3.91,0,0,0,1-1l5.69.52a8.13,8.13,0,0,1-3.15,3.26,11.53,11.53,0,0,1-5.29,1,10.83,10.83,0,0,1-4.7-.84A6.89,6.89,0,0,1,153,205.4a8.08,8.08,0,0,1-1.12-4.32,7.56,7.56,0,0,1,2.26-5.71,8.6,8.6,0,0,1,6.24-2.19,11.16,11.16,0,0,1,5.11,1,6.62,6.62,0,0,1,2.85,2.84,10.39,10.39,0,0,1,1,4.83Zm-5.87-2.77a4,4,0,0,0-.9-2.4,2.83,2.83,0,0,0-4.12.37,4,4,0,0,0-.67,2Z"/><path id="_Compound_Path_14" data-name="&lt;Compound Path&gt;" class="cls-5" d="M184.53,214.31V193.52h5.4v2.23a7.2,7.2,0,0,1,2.06-1.9,5.93,5.93,0,0,1,2.79-.67,5.41,5.41,0,0,1,4.68,2.32,9.56,9.56,0,0,1,1.65,5.71,8.22,8.22,0,0,1-1.8,5.73,5.89,5.89,0,0,1-4.55,2,6.42,6.42,0,0,1-2.44-.45,5.75,5.75,0,0,1-2-1.35v7.19Zm5.79-13.21a4,4,0,0,0,.75,2.65,2.42,2.42,0,0,0,1.9.86,2.12,2.12,0,0,0,1.69-.83,4.5,4.5,0,0,0,.68-2.81,4.2,4.2,0,0,0-.71-2.69,2.19,2.19,0,0,0-1.73-.86,2.34,2.34,0,0,0-1.85.87A4.32,4.32,0,0,0,190.32,201.1Z"/><path id="_Compound_Path_15" data-name="&lt;Compound Path&gt;" class="cls-5" d="M204.61,201.1a7.54,7.54,0,0,1,2.33-5.68,8.68,8.68,0,0,1,6.28-2.24q4.53,0,6.84,2.63a8.21,8.21,0,0,1-.45,10.89,8.82,8.82,0,0,1-6.38,2.22,9,9,0,0,1-5.87-1.84A7.41,7.41,0,0,1,204.61,201.1Zm5.79,0a4.57,4.57,0,0,0,.81,3,2.59,2.59,0,0,0,2,1,2.54,2.54,0,0,0,2.05-1,4.66,4.66,0,0,0,.8-3,4.43,4.43,0,0,0-.81-2.91,2.49,2.49,0,0,0-2-1,2.65,2.65,0,0,0-2.09,1A4.51,4.51,0,0,0,210.4,201.08Z"/><path id="_Compound_Path_16" data-name="&lt;Compound Path&gt;" class="cls-5" d="M242,187.8v20.78h-5.4v-2.22a7.15,7.15,0,0,1-2.07,1.91,6,6,0,0,1-2.78.65,5.36,5.36,0,0,1-4.7-2.34,9.73,9.73,0,0,1-1.62-5.68,8.28,8.28,0,0,1,1.79-5.73,5.9,5.9,0,0,1,4.56-2,6.44,6.44,0,0,1,2.45.46,5.51,5.51,0,0,1,1.95,1.36v-7.2ZM236.21,201a4,4,0,0,0-.75-2.64,2.39,2.39,0,0,0-1.9-.88,2.09,2.09,0,0,0-1.69.84,4.52,4.52,0,0,0-.68,2.81,4.22,4.22,0,0,0,.7,2.7,2.18,2.18,0,0,0,1.74.86,2.31,2.31,0,0,0,1.84-.87A4.31,4.31,0,0,0,236.21,201Z"/><path id="_Compound_Path_17" data-name="&lt;Compound Path&gt;" class="cls-5" d="M262.83,208.58h-5.39v-2.44a7.69,7.69,0,0,1-2.43,2.14,6.41,6.41,0,0,1-3,.64,4.91,4.91,0,0,1-3.74-1.42,6.2,6.2,0,0,1-1.35-4.39v-9.59h5.8v8.28a3.06,3.06,0,0,0,.52,2,1.84,1.84,0,0,0,1.47.59,2.11,2.11,0,0,0,1.7-.79,4.58,4.58,0,0,0,.66-2.85v-7.25h5.77Z"/><path id="_Compound_Path_18" data-name="&lt;Compound Path&gt;" class="cls-5" d="M267.13,193.52h14v3.38l-7.6,7.74h8.07v3.94h-15v-3.74l7.22-7.37h-6.65Z"/><path id="_Compound_Path_19" data-name="&lt;Compound Path&gt;" class="cls-5" d="M301.82,202.49H290.25a3.72,3.72,0,0,0,.75,2.07,2.73,2.73,0,0,0,2.18,1,3.32,3.32,0,0,0,1.62-.42,3.92,3.92,0,0,0,1-1l5.68.52a8.13,8.13,0,0,1-3.15,3.26,11.53,11.53,0,0,1-5.29,1,10.83,10.83,0,0,1-4.7-.84,7,7,0,0,1-2.85-2.68,8.08,8.08,0,0,1-1.12-4.32,7.56,7.56,0,0,1,2.26-5.71,8.6,8.6,0,0,1,6.24-2.19,11.16,11.16,0,0,1,5.11,1,6.57,6.57,0,0,1,2.85,2.84,10.39,10.39,0,0,1,1,4.83ZM296,199.72a4,4,0,0,0-.9-2.4,2.83,2.83,0,0,0-4.12.37,4.07,4.07,0,0,0-.67,2Z"/><path id="_Compound_Path_20" data-name="&lt;Compound Path&gt;" class="cls-5" d="M312.88,187.8v5.72h3.18v4.23h-3.18v5.33a2.76,2.76,0,0,0,.19,1.28,1.06,1.06,0,0,0,1,.48,6.27,6.27,0,0,0,1.79-.37l.42,4a18.31,18.31,0,0,1-4,.47,6.93,6.93,0,0,1-3.17-.55,3.36,3.36,0,0,1-1.51-1.68,9.74,9.74,0,0,1-.49-3.64v-5.3H305v-4.23h2.13v-2.76Z"/><path id="_Compound_Path_21" data-name="&lt;Compound Path&gt;" class="cls-5" d="M320.26,193.52h5.37V196a8.14,8.14,0,0,1,2.44-2.15,6.44,6.44,0,0,1,3-.65,4.94,4.94,0,0,1,3.75,1.43,6.21,6.21,0,0,1,1.35,4.4v9.57h-5.8V200.3a3,3,0,0,0-.52-2,1.88,1.88,0,0,0-1.48-.58,2.1,2.1,0,0,0-1.7.79,4.66,4.66,0,0,0-.65,2.85v7.23h-5.77Z"/><path id="_Compound_Path_22" data-name="&lt;Compound Path&gt;" class="cls-5" d="M341.29,187.8h5.77v3.92h-5.77Zm0,5.72h5.77v15.06h-5.77Z"/><path id="_Compound_Path_23" data-name="&lt;Compound Path&gt;" class="cls-5" d="M352.2,187.8h5.9v10.72l4.31-5h7.1l-5.4,5.28,5.71,9.78h-6.5l-3.05-6-2.17,2.12v3.91h-5.9Z"/><path id="_Compound_Path_24" data-name="&lt;Compound Path&gt;" class="cls-5" d="M378.28,198.4l-5.51-.58a6,6,0,0,1,.9-2.28,4.84,4.84,0,0,1,1.69-1.43,6.93,6.93,0,0,1,2.18-.68,16.74,16.74,0,0,1,3-.25,24.3,24.3,0,0,1,4.17.29,5.36,5.36,0,0,1,2.62,1.22,4.14,4.14,0,0,1,1.16,1.81,6.33,6.33,0,0,1,.43,2.23v6.65a8,8,0,0,0,.13,1.66,7.4,7.4,0,0,0,.59,1.54h-5.41a6,6,0,0,1-.43-.88,7,7,0,0,1-.2-1,7.39,7.39,0,0,1-2.25,1.56,9.51,9.51,0,0,1-3.56.62,5.91,5.91,0,0,1-4.09-1.25,4,4,0,0,1-1.4-3.07,4,4,0,0,1,1-2.82,6.79,6.79,0,0,1,3.71-1.65c2.17-.43,3.57-.74,4.21-.91a21.52,21.52,0,0,0,2.05-.69,2,2,0,0,0-.44-1.49,2.25,2.25,0,0,0-1.55-.42,4.07,4.07,0,0,0-2.13.45A2.57,2.57,0,0,0,378.28,198.4Zm5,3q-1.2.42-2.49.75a5.71,5.71,0,0,0-2.22.92,1.49,1.49,0,0,0,0,2.18,2.06,2.06,0,0,0,1.4.43,3.6,3.6,0,0,0,1.79-.47,2.83,2.83,0,0,0,1.18-1.14,3.83,3.83,0,0,0,.35-1.75Z"/><path id="_Compound_Path_25" data-name="&lt;Compound Path&gt;" class="cls-5" d="M90.54,243.43l-7.43-20.79h4.55L92.92,238,98,222.64h4.46L95,243.43Z"/><path id="_Compound_Path_26" data-name="&lt;Compound Path&gt;" class="cls-5" d="M113.15,238.63l4,.67a6.51,6.51,0,0,1-2.42,3.33,7.1,7.1,0,0,1-4.13,1.14,6.76,6.76,0,0,1-5.82-2.57,8.63,8.63,0,0,1-1.48-5.19,8.33,8.33,0,0,1,2-5.86,6.47,6.47,0,0,1,5-2.12,6.67,6.67,0,0,1,5.3,2.22c1.3,1.48,1.92,3.74,1.86,6.8h-10a4,4,0,0,0,1,2.75,3,3,0,0,0,2.3,1,2.43,2.43,0,0,0,1.57-.51A3.14,3.14,0,0,0,113.15,238.63Zm.22-4a3.77,3.77,0,0,0-.89-2.63,2.87,2.87,0,0,0-4.22.05,3.65,3.65,0,0,0-.84,2.58Z"/><path id="_Compound_Path_27" data-name="&lt;Compound Path&gt;" class="cls-5" d="M122,243.43V222.64h4v20.79Z"/><path id="_Compound_Path_28" data-name="&lt;Compound Path&gt;" class="cls-5" d="M131.55,226.33v-3.69h4v3.69Zm0,17.1V228.37h4v15.06Z"/><path id="_Compound_Path_29" data-name="&lt;Compound Path&gt;" class="cls-5" d="M140.93,243.43V222.64h4v11l4.67-5.3h4.9l-5.15,5.5,5.52,9.56h-4.3l-3.78-6.77-1.86,2v4.82Z"/><path id="_Compound_Path_30" data-name="&lt;Compound Path&gt;" class="cls-5" d="M161.65,233l-3.62-.65a5.64,5.64,0,0,1,2.1-3.23,7.67,7.67,0,0,1,4.42-1.05,9.54,9.54,0,0,1,4,.63,4,4,0,0,1,1.84,1.6,8.32,8.32,0,0,1,.53,3.57l0,4.65a16,16,0,0,0,.19,2.93,8.67,8.67,0,0,0,.72,2h-3.95c-.1-.27-.23-.66-.38-1.18a4.45,4.45,0,0,0-.14-.47,7.24,7.24,0,0,1-2.18,1.49,6.32,6.32,0,0,1-2.48.5A5.1,5.1,0,0,1,159,242.5a4.49,4.49,0,0,1-.73-5.46,4,4,0,0,1,1.71-1.53,12.86,12.86,0,0,1,3.17-.93,22,22,0,0,0,3.87-1v-.4a2,2,0,0,0-.57-1.63,3.37,3.37,0,0,0-2.14-.49,2.93,2.93,0,0,0-1.66.41A2.86,2.86,0,0,0,161.65,233ZM167,236.2c-.51.17-1.32.37-2.43.61a7.13,7.13,0,0,0-2.17.69,1.67,1.67,0,0,0-.78,1.4,2,2,0,0,0,.63,1.45,2.15,2.15,0,0,0,1.59.61,3.47,3.47,0,0,0,2.05-.71,2.51,2.51,0,0,0,.95-1.32A7.52,7.52,0,0,0,167,237Z"/><path id="_Compound_Path_31" data-name="&lt;Compound Path&gt;" class="cls-5" d="M185.87,243.43V222.64h4.2v9.23l8.48-9.23h5.64l-7.82,8.1,8.25,12.69h-5.43l-5.72-9.76-3.4,3.48v6.28Z"/><path id="_Compound_Path_32" data-name="&lt;Compound Path&gt;" class="cls-5" d="M208.21,243.43V222.64h4v20.79Z"/><path id="_Compound_Path_33" data-name="&lt;Compound Path&gt;" class="cls-5" d="M220.71,233l-3.62-.65a5.64,5.64,0,0,1,2.1-3.23,7.71,7.71,0,0,1,4.43-1.05,9.57,9.57,0,0,1,4,.63,4,4,0,0,1,1.83,1.6,8.17,8.17,0,0,1,.53,3.57l0,4.65a16,16,0,0,0,.19,2.93,8.67,8.67,0,0,0,.72,2h-3.94c-.11-.27-.24-.66-.39-1.18a4.45,4.45,0,0,0-.14-.47,7.24,7.24,0,0,1-2.18,1.49,6.28,6.28,0,0,1-2.48.5A5.12,5.12,0,0,1,218,242.5a4.2,4.2,0,0,1-1.34-3.19,4.31,4.31,0,0,1,.61-2.27,4,4,0,0,1,1.71-1.53,12.86,12.86,0,0,1,3.17-.93,22,22,0,0,0,3.87-1v-.4a2,2,0,0,0-.57-1.63,3.37,3.37,0,0,0-2.14-.49,2.37,2.37,0,0,0-2.62,1.88ZM226,236.2c-.51.17-1.32.37-2.42.61a7,7,0,0,0-2.17.69,1.67,1.67,0,0,0-.78,1.4,2,2,0,0,0,.62,1.45,2.18,2.18,0,0,0,1.59.61,3.44,3.44,0,0,0,2.05-.71,2.45,2.45,0,0,0,.95-1.32A7.52,7.52,0,0,0,226,237Z"/><path id="_Compound_Path_34" data-name="&lt;Compound Path&gt;" class="cls-5" d="M249.14,243.43h-3.7v-2.22a6,6,0,0,1-2.18,1.93,5.54,5.54,0,0,1-2.53.63,5.71,5.71,0,0,1-4.44-2.1,10.21,10.21,0,0,1,0-11.65,5.86,5.86,0,0,1,4.55-2,5.65,5.65,0,0,1,4.37,2.1v-7.49h4Zm-10.63-7.86a7,7,0,0,0,.66,3.49,3,3,0,0,0,2.7,1.56,2.92,2.92,0,0,0,2.34-1.17,5.43,5.43,0,0,0,1-3.5,5.91,5.91,0,0,0-.93-3.73,3.09,3.09,0,0,0-4.78,0A5.17,5.17,0,0,0,238.51,235.57Z"/><path id="_Compound_Path_35" data-name="&lt;Compound Path&gt;" class="cls-5" d="M264.43,243.43v-2.26a5.75,5.75,0,0,1-2.16,1.9,6,6,0,0,1-2.83.7,5.56,5.56,0,0,1-2.72-.67,3.85,3.85,0,0,1-1.74-1.87,8.34,8.34,0,0,1-.54-3.33v-9.53h4v6.92a18.88,18.88,0,0,0,.22,3.89,2.07,2.07,0,0,0,.8,1.13,2.46,2.46,0,0,0,1.47.42,3.1,3.1,0,0,0,1.84-.56,2.85,2.85,0,0,0,1.1-1.39,16,16,0,0,0,.3-4.06v-6.35h4v15.06Z"/><path id="_Compound_Path_36" data-name="&lt;Compound Path&gt;" class="cls-5" d="M272.31,239.13l4-.61a3,3,0,0,0,1,1.77,3.51,3.51,0,0,0,2.18.6,3.94,3.94,0,0,0,2.33-.57,1.25,1.25,0,0,0,.52-1.06,1,1,0,0,0-.28-.75,3.13,3.13,0,0,0-1.33-.53c-3.22-.71-5.25-1.35-6.11-1.94a3.88,3.88,0,0,1-1.79-3.39,4.16,4.16,0,0,1,1.55-3.29A7.19,7.19,0,0,1,279.2,228a8.26,8.26,0,0,1,4.59,1,5.15,5.15,0,0,1,2.07,3l-3.76.7a2.3,2.3,0,0,0-.91-1.35,3.36,3.36,0,0,0-1.92-.47,4.4,4.4,0,0,0-2.26.44,1,1,0,0,0-.45.81.87.87,0,0,0,.4.72,14.63,14.63,0,0,0,3.72,1.12,11.15,11.15,0,0,1,4.44,1.78,3.64,3.64,0,0,1,1.25,3,4.53,4.53,0,0,1-1.73,3.56,7.67,7.67,0,0,1-5.12,1.49,8.42,8.42,0,0,1-4.87-1.25A5.76,5.76,0,0,1,272.31,239.13Zm2.22-16.84h3.22l1.53,2.11,1.65-2.11h3.2l-2.93,4.18h-3.69Z"/><path id="_Compound_Path_37" data-name="&lt;Compound Path&gt;" class="cls-5" d="M294.29,233l-3.62-.65a5.64,5.64,0,0,1,2.1-3.23A7.68,7.68,0,0,1,297.2,228a9.57,9.57,0,0,1,4,.63,4,4,0,0,1,1.83,1.6,8.17,8.17,0,0,1,.53,3.57l0,4.65a16,16,0,0,0,.19,2.93,8.67,8.67,0,0,0,.72,2h-3.94c-.11-.27-.23-.66-.39-1.18a4.45,4.45,0,0,0-.14-.47,7.24,7.24,0,0,1-2.18,1.49,6.28,6.28,0,0,1-2.48.5,5.12,5.12,0,0,1-3.67-1.27,4.2,4.2,0,0,1-1.34-3.19,4.31,4.31,0,0,1,.61-2.27,4,4,0,0,1,1.71-1.53,12.86,12.86,0,0,1,3.17-.93,22,22,0,0,0,3.87-1v-.4a2,2,0,0,0-.57-1.63,3.35,3.35,0,0,0-2.14-.49,2.93,2.93,0,0,0-1.66.41A3,3,0,0,0,294.29,233Zm5.33,3.24c-.51.17-1.32.37-2.42.61a7,7,0,0,0-2.17.69,1.67,1.67,0,0,0-.78,1.4,2,2,0,0,0,.62,1.45,2.18,2.18,0,0,0,1.59.61,3.44,3.44,0,0,0,2.05-.71,2.45,2.45,0,0,0,.95-1.32,7.52,7.52,0,0,0,.16-1.94Z"/></g></g></g></svg>