<svg xmlns="http://www.w3.org/2000/svg" xmlns:xlink="http://www.w3.org/1999/xlink" version="1.1" x="0px" y="0px" viewBox="0 0 100 125" enable-background="new 0 0 100 100" xml:space="preserve"><path fill="#d7d7d7" d="M2,69.7L2,69.7c0.1,2.7,2.3,4.8,5,4.8h25.2c0,1.1-0.7,6.2-8.2,7.1h0.2c-1.2,0-2.2,1-2.2,2.2c0,1.2,1,2.2,2.2,2.2H52v-5.9  c0-0.2,0-0.4,0-0.6c-2.3-1.8-2.5-4.2-2.6-5h4.6c0.3-0.4,0.6-0.7,1-1c4-3.3,8.2-5.8,10.8-7.2v-3.9H7.6c-0.5,0-1-0.4-1-1V19.7  c0-0.5,0.4-1,1-1H74c0.5,0,1,0.4,1,1v16.9c0.4,0,0.9-0.1,1.3-0.1h0.9h0.9c0.5,0,1,0,1.5,0.1v-17c0-3.1-2.5-5.6-5.6-5.6H7.6  c-3.1,0-5.6,2.5-5.6,5.6v41.7c0,0,0,0,0,0.1V69c0,0,0,0.1,0,0.1v0.4c0,0,0,0.1,0,0.1V69.7z M40.8,66.1c1.5,0,2.8,1.2,2.8,2.8  s-1.2,2.8-2.8,2.8c-1.5,0-2.8-1.2-2.8-2.8S39.3,66.1,40.8,66.1z M78.1,41c4.3,0,7.7,3.5,7.7,7.7v8.6c0,1.3-0.7,2.5-1.7,3.2v8.3  c0,0.1,0.1,0.3,0.2,0.3c1.2,0.6,6.9,3.5,12.2,7.8c1,0.8,1.5,2,1.5,3.2v5.9H80l-1.8-8.2c3.6-5-0.3-5.3-0.9-5.3h0h0  c-0.7,0-4.6,0.2-0.9,5.3l-1.8,8.2H56.4v-5.9c0-1.2,0.6-2.4,1.5-3.2c5.3-4.4,11-7.2,12.2-7.8c0.1-0.1,0.2-0.2,0.2-0.3v-8.3  c-1-0.7-1.7-1.9-1.7-3.2v-8.6c0-4.3,3.5-7.7,7.7-7.7h0.9H78.1z"/></svg>