<svg xmlns="http://www.w3.org/2000/svg" xmlns:xlink="http://www.w3.org/1999/xlink" version="1.1" x="0px" y="0px" viewBox="0 0 100 125" enable-background="new 0 0 100 100" xml:space="preserve"><path fill="#d7d7d7" d="M78.801,51.257H49.021c-6.091,0-11.028,4.938-11.028,11.03v12.466c27.214,20.674,51.836,0,51.836,0V62.287  C89.829,56.194,84.891,51.257,78.801,51.257z M63.911,44.095c7.043,0,12.753-6.77,12.753-15.122c0-8.35-5.71-12.914-12.753-12.914  s-12.753,4.564-12.753,12.914C51.158,37.325,56.868,44.095,63.911,44.095z M41.838,36.503H29.942V24.607h-7.876v11.896H10.171v7.876  h11.896v11.896h7.876V44.379h11.896V36.503z"/></svg>